/* XPM */
static const char * scrard_xpm[] = {
"48 48 719 2",
"  	c None",
". 	c #7E581F",
"+ 	c #C7861D",
"@ 	c #DB931D",
"# 	c #8B601F",
"$ 	c #D58F1E",
"% 	c #C7851E",
"& 	c #FFA91D",
"* 	c #DF941D",
"= 	c #835A1F",
"- 	c #FCA71E",
"; 	c #E3971D",
"> 	c #B1781E",
", 	c #C8851D",
"' 	c #FFA81D",
") 	c #FCA61D",
"! 	c #E89A1D",
"~ 	c #B2791E",
"{ 	c #E99B1D",
"] 	c #FFA91C",
"^ 	c #FFA519",
"/ 	c #B68628",
"( 	c #356555",
"_ 	c #007582",
": 	c #CF8A1E",
"< 	c #FDA71D",
"[ 	c #FAA51D",
"} 	c #FBA51C",
"| 	c #D18718",
"1 	c #DD901B",
"2 	c #F3A522",
"3 	c #9A9344",
"4 	c #518663",
"5 	c #127477",
"6 	c #007481",
"7 	c #007583",
"8 	c #086E77",
"9 	c #637145",
"0 	c #C1821D",
"a 	c #C7841C",
"b 	c #A9721C",
"c 	c #7B5314",
"d 	c #966517",
"e 	c #F3A11C",
"f 	c #FBA51D",
"g 	c #FEA61B",
"h 	c #FEA71D",
"i 	c #9B8B3B",
"j 	c #0B6C73",
"k 	c #007584",
"l 	c #007482",
"m 	c #9F7A2B",
"n 	c #618A5E",
"o 	c #0C777D",
"p 	c #007385",
"q 	c #027581",
"r 	c #207A74",
"s 	c #778B51",
"t 	c #EAA122",
"u 	c #E9991B",
"v 	c #D68E19",
"w 	c #D78F19",
"x 	c #E89A1B",
"y 	c #FBA61D",
"z 	c #EDA322",
"A 	c #778C52",
"B 	c #1C7A76",
"C 	c #206B66",
"D 	c #037782",
"E 	c #007483",
"F 	c #007386",
"G 	c #007289",
"H 	c #007485",
"I 	c #057680",
"J 	c #007287",
"K 	c #007288",
"L 	c #007484",
"M 	c #4D8463",
"N 	c #E8A225",
"O 	c #FFA71C",
"P 	c #FCA71D",
"Q 	c #F6A31C",
"R 	c #FCA61C",
"S 	c #E5A126",
"T 	c #4C8463",
"U 	c #007683",
"V 	c #007381",
"W 	c #0B777D",
"X 	c #678958",
"Y 	c #B69839",
"Z 	c #D49E2C",
"` 	c #D79E2B",
" .	c #CF9D2F",
"..	c #9F9342",
"+.	c #478265",
"@.	c #3F8168",
"#.	c #EBA223",
"$.	c #3B806A",
"%.	c #007480",
"&.	c #006C7D",
"*.	c #4B8364",
"=.	c #D29D2E",
"-.	c #F3A420",
";.	c #F9A51D",
">.	c #FCA51C",
",.	c #F7A41E",
"'.	c #EFA321",
").	c #B69838",
"!.	c #2B7E71",
"~.	c #007486",
"{.	c #498264",
"].	c #468266",
"^.	c #007280",
"/.	c #177885",
"(.	c #A08E41",
"_.	c #AF7A1E",
":.	c #5C865D",
"<.	c #E5A125",
"[.	c #DD9F29",
"}.	c #7B8C50",
"|.	c #788B51",
"1.	c #00727F",
"2.	c #4D9FA8",
"3.	c #E5F3F5",
"4.	c #D9D6D5",
"5.	c #BE924C",
"6.	c #C1831E",
"7.	c #377F6C",
"8.	c #D09D2E",
"9.	c #FFA61B",
"0.	c #EA9C20",
"a.	c #AD7C31",
"b.	c #AC7C34",
"c.	c #B9812A",
"d.	c #DD941F",
"e.	c #FAA51E",
"f.	c #E6A125",
"g.	c #017682",
"h.	c #007682",
"i.	c #007380",
"j.	c #489CA5",
"k.	c #EAF4F5",
"l.	c #FFFFFF",
"m.	c #E6EAF2",
"n.	c #CE9A48",
"o.	c #C4831E",
"p.	c #037581",
"q.	c #868F4C",
"r.	c #FFA718",
"s.	c #FDA61C",
"t.	c #D59023",
"u.	c #CBC1B3",
"v.	c #FBFEFF",
"w.	c #FEFFFF",
"x.	c #F0F3F8",
"y.	c #C9C8CB",
"z.	c #B49568",
"A.	c #E19721",
"B.	c #FFA719",
"C.	c #2E7E6F",
"D.	c #308F9A",
"E.	c #DAEBED",
"F.	c #D1D4DB",
"G.	c #D99A32",
"H.	c #A5721E",
"I.	c #277D72",
"J.	c #C09A35",
"K.	c #FFA61A",
"L.	c #F9A215",
"M.	c #A99C8A",
"N.	c #F5F9FF",
"O.	c #CCB48E",
"P.	c #E3971E",
"Q.	c #FFA816",
"R.	c #A4953F",
"S.	c #13797A",
"T.	c #127D89",
"U.	c #A7CED2",
"V.	c #B6ADA2",
"W.	c #E99D21",
"X.	c #5C4320",
"Y.	c #DFA028",
"Z.	c #C78313",
"`.	c #DCD8D1",
" +	c #FEFEFF",
".+	c #EAECF0",
"++	c #C9A56C",
"@+	c #ED9C1A",
"#+	c #FFA817",
"$+	c #56855F",
"%+	c #037681",
"&+	c #027580",
"*+	c #46867C",
"=+	c #EBE5E7",
"-+	c #AF8749",
";+	c #B97C1D",
">+	c #3E8169",
",+	c #E3A127",
"'+	c #FEA61C",
")+	c #FFA81B",
"!+	c #AD7927",
"~+	c #F9F5F0",
"{+	c #D0CDC7",
"]+	c #D4993B",
"^+	c #FFA614",
"/+	c #7F8E4F",
"(+	c #07767F",
"_+	c #07767E",
":+	c #6C865D",
"<+	c #CBB8A7",
"[+	c #F3F3F3",
"}+	c #FDFDFD",
"|+	c #B0AAA5",
"1+	c #E6981B",
"2+	c #317E6E",
"3+	c #CF9D2E",
"4+	c #AE7A25",
"5+	c #F7F4EE",
"6+	c #F4F8FF",
"7+	c #CCA671",
"8+	c #C4942D",
"9+	c #247C73",
"0+	c #1C7673",
"a+	c #A19365",
"b+	c #F3F0F2",
"c+	c #D7D6D6",
"d+	c #807E7E",
"e+	c #999798",
"f+	c #FBFAFA",
"g+	c #CECFD2",
"h+	c #D68D18",
"i+	c #9D6B1E",
"j+	c #10787B",
"k+	c #9E9342",
"l+	c #B5750E",
"m+	c #EFECE6",
"n+	c #DDDDDD",
"o+	c #8E8C8C",
"p+	c #CAC9C9",
"q+	c #C4BDAF",
"r+	c #428071",
"s+	c #037680",
"t+	c #407C6A",
"u+	c #C0B297",
"v+	c #FDFCFF",
"w+	c #A19FA0",
"x+	c #1A1617",
"y+	c #2A2627",
"z+	c #F1F1F1",
"A+	c #D7D9DC",
"B+	c #CD8615",
"C+	c #CF891A",
"D+	c #548560",
"E+	c #EB9814",
"F+	c #BAAC97",
"G+	c #F9F9F9",
"H+	c #9A9898",
"I+	c #0B0708",
"J+	c #797575",
"K+	c #FDFDFC",
"L+	c #75B0B5",
"M+	c #037684",
"N+	c #05747D",
"O+	c #597F65",
"P+	c #D0C1AC",
"Q+	c #E4E3E3",
"R+	c #9D9B9C",
"S+	c #ADACAC",
"T+	c #B1B1B2",
"U+	c #EFD4A9",
"V+	c #E49D2C",
"W+	c #077880",
"X+	c #878F4C",
"Y+	c #B5812E",
"Z+	c #F1F2F5",
"`+	c #BCBCBC",
" @	c #464141",
".@	c #999898",
"+@	c #86BEC3",
"@@	c #0E7E8A",
"#@	c #488365",
"$@	c #4B8767",
"%@	c #007685",
"&@	c #097479",
"*@	c #628A78",
"=@	c #BFB8AF",
"-@	c #EFEDEE",
";@	c #DBDBDA",
">@	c #C3C1C1",
",@	c #F7E3C3",
"'@	c #B49E7C",
")@	c #8E6925",
"!@	c #678B5A",
"~@	c #007387",
"{@	c #0A777E",
"]@	c #818D4E",
"^@	c #F8A41E",
"/@	c #FFA71A",
"(@	c #F5A018",
"_@	c #BCA481",
":@	c #FFFFFE",
"<@	c #D2DBDC",
"[@	c #569EA6",
"}@	c #087A86",
"|@	c #007382",
"1@	c #1C7974",
"2@	c #DCA028",
"3@	c #997321",
"4@	c #006674",
"5@	c #007684",
"6@	c #05757F",
"7@	c #549A9F",
"8@	c #B0B9BA",
"9@	c #B8B1B1",
"0@	c #B1AEAE",
"a@	c #D1CFD0",
"b@	c #F8F8F8",
"c@	c #FFF9F3",
"d@	c #E2DCCF",
"e@	c #447C75",
"f@	c #007281",
"g@	c #007987",
"h@	c #B37A1E",
"i@	c #D9A02D",
"j@	c #1B7A77",
"k@	c #39806B",
"l@	c #A39440",
"m@	c #F6A51F",
"n@	c #FBA31D",
"o@	c #B89970",
"p@	c #EFECEE",
"q@	c #E5F1F3",
"r@	c #82BBC1",
"s@	c #208793",
"t@	c #037784",
"u@	c #0E7E8D",
"v@	c #CEAD57",
"w@	c #9F680F",
"x@	c #5B473A",
"y@	c #4B5450",
"z@	c #05727F",
"A@	c #027783",
"B@	c #1C818D",
"C@	c #79B3B9",
"D@	c #DBE7E9",
"E@	c #FAFDFD",
"F@	c #A7D0D4",
"G@	c #38939C",
"H@	c #02747F",
"I@	c #046B77",
"J@	c #B87D1E",
"K@	c #B59839",
"L@	c #0B787D",
"M@	c #017582",
"N@	c #07777F",
"O@	c #227C74",
"P@	c #2D7D70",
"Q@	c #0E757E",
"R@	c #047885",
"S@	c #027683",
"T@	c #137F8B",
"U@	c #C7E1E4",
"V@	c #FFFEFC",
"W@	c #F0EEE9",
"X@	c #5F5754",
"Y@	c #56433B",
"Z@	c #4A5550",
"`@	c #06727E",
" #	c #037683",
".#	c #047784",
"+#	c #18828D",
"@#	c #32909B",
"##	c #228792",
"$#	c #077986",
"%#	c #9D6D1F",
"&#	c #FEA71C",
"*#	c #B1973A",
"=#	c #1A7A78",
"-#	c #33909B",
";#	c #D3E7E9",
">#	c #FCFCFC",
",#	c #969493",
"'#	c #4E413C",
")#	c #474D49",
"!#	c #0E6B75",
"~#	c #017885",
"{#	c #1B797C",
"]#	c #C4851E",
"^#	c #D59D2C",
"/#	c #4B8363",
"(#	c #067885",
"_#	c #16808C",
":#	c #77B5BD",
"<#	c #F2F8F9",
"[#	c #D9DFE0",
"}#	c #79B8BF",
"|#	c #15808C",
"1#	c #057885",
"2#	c #037783",
"3#	c #0C7B88",
"4#	c #50A1AC",
"5#	c #CFD7CC",
"6#	c #A08F80",
"7#	c #A9731E",
"8#	c #F9A41D",
"9#	c #BC9936",
"0#	c #58865E",
"a#	c #27878C",
"b#	c #1B8490",
"c#	c #16818D",
"d#	c #18828E",
"e#	c #1E8591",
"f#	c #34919B",
"g#	c #80BBC2",
"h#	c #D2E0E1",
"i#	c #EEE8E7",
"j#	c #EFEEEE",
"k#	c #EFEFEF",
"l#	c #E0EEF0",
"m#	c #7DB9BF",
"n#	c #33919B",
"o#	c #1B848F",
"p#	c #288A95",
"q#	c #5CA6AF",
"r#	c #BFDCDF",
"s#	c #F8F6F6",
"t#	c #979697",
"u#	c #76521F",
"v#	c #EA9B1E",
"w#	c #FFA619",
"x#	c #FFA917",
"y#	c #FBEED5",
"z#	c #D4E7EB",
"A#	c #BCDADE",
"B#	c #B6D8DC",
"C#	c #C3DEE2",
"D#	c #E4F0F2",
"E#	c #D3D0D0",
"F#	c #ABA9A9",
"G#	c #BDBCBC",
"H#	c #B6B4B5",
"I#	c #CECDCD",
"J#	c #E4E4E4",
"K#	c #E7E7E7",
"L#	c #FEFEFE",
"M#	c #D4E7EA",
"N#	c #FCFDFD",
"O#	c #FFFBFB",
"P#	c #E9E8E8",
"Q#	c #D2D1CE",
"R#	c #837F7C",
"S#	c #E0961D",
"T#	c #FAA41B",
"U#	c #FAA723",
"V#	c #FFF4E1",
"W#	c #D3D2D2",
"X#	c #DFDEDE",
"Y#	c #BFBEBF",
"Z#	c #C0BFBF",
"`#	c #C9C8C8",
" $	c #DAD9D9",
".$	c #DEDDDD",
"+$	c #DDDCDC",
"@$	c #E7E6E6",
"#$	c #FBFBFB",
"$$	c #DCDCDE",
"%$	c #9D968C",
"&$	c #5D5247",
"*$	c #9B6B1E",
"=$	c #FEA81D",
"-$	c #FAA620",
";$	c #FEF2DE",
">$	c #D2D1D1",
",$	c #F2F2F2",
"'$	c #C7C6C7",
")$	c #C8C7C7",
"!$	c #CECECE",
"~$	c #D2D2D2",
"{$	c #D3D3D3",
"]$	c #D2D1D2",
"^$	c #EAEAEA",
"/$	c #CDBCA1",
"($	c #D58E1D",
"_$	c #FAA51C",
":$	c #FAA114",
"<$	c #FEECCE",
"[$	c #D0CFD0",
"}$	c #D9D9D9",
"|$	c #F5F4F5",
"1$	c #DBDBDB",
"2$	c #9F9D9E",
"3$	c #E2E2E2",
"4$	c #F0E6D4",
"5$	c #B3976B",
"6$	c #9C6A1E",
"7$	c #ED9D1D",
"8$	c #FAA012",
"9$	c #FDD493",
"0$	c #FFFEFB",
"a$	c #D8D7D7",
"b$	c #CFCECE",
"c$	c #FEFDFD",
"d$	c #E2E1E2",
"e$	c #CECDCE",
"f$	c #FCF7EE",
"g$	c #CEB68F",
"h$	c #FAA41A",
"i$	c #FBAD30",
"j$	c #FFF5E6",
"k$	c #C9C7C8",
"l$	c #E6E6E6",
"m$	c #CFCECF",
"n$	c #F6F6F6",
"o$	c #FCF8F2",
"p$	c #D5BE9A",
"q$	c #A9721E",
"r$	c #E6991D",
"s$	c #FAA318",
"t$	c #FBBD5A",
"u$	c #C0BEBF",
"v$	c #DEDEDE",
"w$	c #BEBCBD",
"x$	c #D4D4D4",
"y$	c #FDFCF9",
"z$	c #CABCA5",
"A$	c #8E621E",
"B$	c #DF951D",
"C$	c #FAA41C",
"D$	c #FCC66E",
"E$	c #CBCACA",
"F$	c #AEADAD",
"G$	c #E3E3E3",
"H$	c #E8E8E8",
"I$	c #B5B4B4",
"J$	c #B8B7B8",
"K$	c #F7F3ED",
"L$	c #9F9484",
"M$	c #BE801E",
"N$	c #F5A21D",
"O$	c #FBB94E",
"P$	c #FEF5E7",
"Q$	c #C6C5C5",
"R$	c #A5A3A3",
"S$	c #A1A0A0",
"T$	c #A2A1A1",
"U$	c #A7A6A6",
"V$	c #C1C0C0",
"W$	c #F2F1F2",
"X$	c #D9CAB0",
"Y$	c #855D1E",
"Z$	c #D38E1D",
"`$	c #F7A41D",
" %	c #F9A41C",
".%	c #FAA927",
"+%	c #FDD494",
"@%	c #FFFAF2",
"#%	c #FEFEFD",
"$%	c #FDFDFE",
"%%	c #FBF5E6",
"&%	c #C9BAA0",
"*%	c #8C7650",
"=%	c #7B561F",
"-%	c #C9861D",
";%	c #F2A01C",
">%	c #F39E17",
",%	c #F4AA34",
"'%	c #FAD8A1",
")%	c #FEF6E9",
"!%	c #FFFCF6",
"~%	c #FFFFFD",
"{%	c #FFFDF8",
"]%	c #FDFBF8",
"^%	c #F9F7F5",
"/%	c #F7F6F4",
"(%	c #F9F6F1",
"_%	c #F4ECDC",
":%	c #D4C0A2",
"<%	c #99825D",
"[%	c #68450C",
"}%	c #744C0D",
"|%	c #865810",
"1%	c #936212",
"2%	c #795011",
"3%	c #80581A",
"4%	c #A7711E",
"5%	c #B0771F",
"6%	c #B0771E",
"7%	c #B67B1C",
"8%	c #CE8613",
"9%	c #D79223",
"0%	c #DCAD62",
"a%	c #E4CCA4",
"b%	c #EEDBBA",
"c%	c #EDDABB",
"d%	c #ECDCC2",
"e%	c #ECDBC0",
"f%	c #E8CA9B",
"g%	c #D1BD9D",
"h%	c #B19F84",
"i%	c #907C5E",
"j%	c #705328",
"k%	c #4E2F03",
"l%	c #AE7414",
"m%	c #CE8918",
"n%	c #DA911A",
"o%	c #F2A11D",
"p%	c #FFAA1E",
"q%	c #FFAC1E",
"r%	c #E5991E",
"s%	c #C7861F",
"t%	c #F8A41D",
"u%	c #D08C1D",
"v%	c #956416",
"w%	c #68440F",
"x%	c #7E510B",
"y%	c #9B650C",
"z%	c #AB6F0F",
"A%	c #603D0A",
"B%	c #9F690F",
"C%	c #B47915",
"D%	c #A16B12",
"E%	c #C68517",
"F%	c #FFAD1E",
"G%	c #EF9F1D",
"H%	c #B97D1E",
"I%	c #F09E1A",
"J%	c #C18015",
"K%	c #D58E18",
"L%	c #FFAF1E",
"M%	c #E5981A",
"N%	c #C28116",
"O%	c #DE9218",
"P%	c #845C1F",
"Q%	c #C68317",
"R%	c #FBA71D",
"S%	c #81550F",
"T%	c #EB9F1C",
"U%	c #FFA91E",
"V%	c #FCA51A",
"W%	c #DC931D",
"X%	c #B07718",
"Y%	c #FFAE1E",
"Z%	c #CC8718",
"`%	c #845A18",
" &	c #9A6512",
".&	c #D58D19",
"+&	c #83570F",
"@&	c #F5A51D",
"#&	c #DB911A",
"$&	c #BE7F16",
"%&	c #BB7E1B",
"&&	c #D68F1E",
"*&	c #FDB94D",
"=&	c #E8CDA2",
"-&	c #B99659",
";&	c #F29C10",
">&	c #CE8819",
",&	c #AB7014",
"'&	c #B47715",
")&	c #E5971A",
"!&	c #DF941A",
"~&	c #483009",
"{&	c #FFAC1F",
"]&	c #E3961B",
"^&	c #A56E13",
"/&	c #B77B1C",
"(&	c #F6A21D",
"_&	c #FBBB54",
":&	c #FFF2DC",
"<&	c #FDFFFF",
"[&	c #DDD6CB",
"}&	c #BF8F43",
"|&	c #EA9711",
"1&	c #FFA81C",
"2&	c #E99A1B",
"3&	c #D28B18",
"4&	c #D28B19",
"5&	c #8B5D11",
"6&	c #D58C19",
"7&	c #DA921D",
"8&	c #FAA721",
"9&	c #FFF1D9",
"0&	c #FCFDFE",
"a&	c #E4E0DA",
"b&	c #BA9A68",
"c&	c #DF9318",
"d&	c #F6A31D",
"e&	c #C28017",
"f&	c #5D3F0B",
"g&	c #B37920",
"h&	c #FAA61F",
"i&	c #FCD79A",
"j&	c #F4F3F3",
"k&	c #BAA98F",
"l&	c #CA8B26",
"m&	c #AB7214",
"n&	c #7B530E",
"o&	c #B57A20",
"p&	c #E6981D",
"q&	c #FAAE34",
"r&	c #FFF5E4",
"s&	c #B0A38F",
"t&	c #A7741E",
"u&	c #F4A21C",
"v&	c #EA9B1B",
"w&	c #895C11",
"x&	c #6A480D",
"y&	c #FFAA1D",
"z&	c #D68D19",
"A&	c #805614",
"B&	c #DF941C",
"C&	c #FBB442",
"D&	c #FFEFD8",
"E&	c #F3E7D3",
"F&	c #998669",
"G&	c #7B520F",
"H&	c #CB8718",
"I&	c #F2A11C",
"J&	c #C18116",
"                                                                                                ",
"                                                        .                                       ",
"                                                      + @                                       ",
"      # $                                           % & *                                       ",
"      = - ; >                                     , ' ) ! ~                                     ",
"        { ] ^ / (   _ _ _ _ _                   : < [ [ } |       _ _ _ _ _                     ",
"        1 2 3 4 5 6 _ _ _ _ _ _ 7 8 9 0 a b c d e f [ g h i j k _ _ _ _ _ _ _ _ _       l _     ",
"        m n o p 7 _ _ _ 7 _ _ _ _ q r s t u v w x y g z A B _ _ _ _ _ _ _ _ _ _ _ _ _           ",
"        C D E _ 7 F G H I J K H _ _ L I M N O P Q R S T I L _ _ U _ _ _ _ _ _ _ _ _ _ _         ",
"      6 V _ _ F W X Y Z `  ...+.L L _ 7 7 @.#.[ f #.$.7 7 _ l %.&.          _ _ _ _ _ _ _       ",
"      _ _ _ F *.=.-.;.>.>.f ,.'.).!.~._ _ E {.;.[ ].E _ _ ^./.(._.              _ _ _ _ _       ",
"    _ _ _ p :.<.>.[ [ [ y ) y f >.[.*.L _ _ L }.|.L _ _ 1.2.3.4.5.6.              _ _ _ _ _     ",
"    _ _ L 7.8.9.[ [ [ 0.a.b.c.d.e.g f.].E _ _ g.h._ _ i.j.k.l.l.m.n.o.              _ _ _ _     ",
"  _ _ _ p.q.r.[ [ s.t.u.v.w.x.y.z.A.B.Z C.7 _ _ _ _ 6 D.E.l.l.l.l.F.G.H.              _ _ _ _   ",
"  _ _ L I.J.K.[ [ L.M.l.l.l.l.l.N.O.P.Q.R.S._ _ _ _ T.U.l.l.l.l.l.l.V.W.X.            _ _ _ _   ",
"  _ _ L $.Y.g [ h Z.`. +l.l.l.l.l..+++@+#+$+%+_ _ &+*+=+l.l.l.l.l.l.v.-+;+            _ _ _ _   ",
"  _ _ L >+,+'+[ )+!+~+l.l.l.l.l.l.l.{+]+^+/+(+_ _ _+:+<+l.l.l.l.[+}+l.|+1+            _ _ _ _   ",
"  _ _ L 2+3+9.[ )+4+5+l.l.l.l.l.l.l.6+7+8+9+_ _ _ _ 0+a+b+l.l.c+d+e+f+g+h+i+          _ _ _ _   ",
"  _ _ 7 j+k+r.[ ' l+m+l.l.l.l.n+o+p+l.q+r+s+_ _ _ _ &+t+u+v+l.w+x+y+z+A+B+C+          _ _ _ _   ",
"  L 7 _ L D+#.9.y E+F+l.l.l.G+H+I+J+K+L+M+l _ p p _ 7 N+O+P+l.Q+R+S+l.T+U+V+        _ _ _ _ _   ",
"    W+_ 7 (+X+[ s.)+Y+Z+l.l.}+`+ @.@+@@@6 _ p #@$@%@_ 7 &@*@=@-@l.l.;@>@l.,@'@      _ _ _ _     ",
"  )@!@~@_ 7 {@]@^@/@(@_@l.l.l.:@<@[@}@6 _ |@1@2@3@4@5@_ _ 6@7@8@9@0@a@b@l.l.c@d@e@f@_ _ U g@    ",
"  h@i@j@L _ _ %+k@l@m@n@o@p@q@r@s@t@6 _ i.u@v@w@x@y@z@U _ _ A@B@C@D@l.l.l.E@F@G@H@_ _ U I@      ",
"  J@' K@L@E _ _ M@%+N@O@P@Q@R@S@_ _ _ i.T@U@V@W@X@Y@Z@`@U _ _ _  #.#+#@###$#t@M@_ _ _ 7         ",
"  %#P.&#*#=#7 _ _ _ _ _ _ _ _ _ _ _ i.-#;#l.l.l.>#,#'#)#!#~#_ _ _ _ _ _ _ _ _ _ _ U {#          ",
"  ]#' [ K.^#/#W %+6 6 6 l 6 6 _ (#_#:#<#l.l.l.l.l.l.z+>@[#}#|#1#_ 6 6 l 6 6 6 2#3#4#5#6#        ",
"  7#8#[ [ 9.K.9#0#a#b#c#|#d#e#f#g#h#i#j#k#b@l.l.l.l.l.l.l.l.l#m#n#e#d#|#c#o#p#q#r#l.s#t#        ",
"  u#v#) [ [ [ w#x#y#z#A#B#C#D#l.l.E#F#G#H#I#J#K#k#L#l.l.l.l.l.l.l.D#C#B#A#M#N#l.O#P#Q#R#        ",
"    S#< [ [ [ T#U#V#l.l.l.l.l.l.l.W#c+l.l.X#Y#Z#`# $.$+$@$#$l.l.l.l.l.l.l.l.l.l.>#$$%$&$        ",
"    *$=$[ [ [ T#-$;$l.l.l.l.l.l.L#>$ $l.l.l.l.l.,$>$`#'$)$!$~$W#{$]$^$l.l.l.l.l.l.l./$          ",
"      ($& [ [ _$:$<$l.l.l.l.l.l.L#[$}$l.l.l.l.l.l.l.l.l.|$1$>$W#;@2$3$l.l.l.l.l.l.4$5$          ",
"      6$7$=$[ [ 8$9$0$l.l.l.l.l.l.a$b$c$l.l.l.l.l.l.l.l.l.l.l.l.d$e$#$l.l.l.l.l.f$g$            ",
"        > { =$[ h$i$j$l.l.l.l.l.l.G+k$l$l.l.l.l.l.l.l.l.l.l.l.W#m$n$l.l.l.l.l.o$p$              ",
"          q$r$=$[ s$t$l.l.l.l.l.l.l.b@u$v$l.l.l.l.l.l.l.l.,$w$x$G+l.l.l.l.l.y$z$                ",
"            A$B$< [ C$D$l.l.l.l.l.l.l.L#E$F$G$l.l.l.l.H$I$J$P#L#l.l.l.l.l.K$L$                  ",
"                M$N$y e.O$P$l.l.l.l.l.l.L#}+Q$R$S$T$U$V$W$l.l.l.l.l.l.l.X$                      ",
"                  Y$Z$`$ %.%+%@%l.l.l.l.l.l.l.l.l.l.l.l.l.l.:@#%$%%%&%*%                        ",
"                      =%-%;%>%,%'%)%!%0$~%~%~%~%V@{%]%^%/%(%_%:%<%                              ",
"            [%}%|%1%2%3%4%5%6%7%8%9%0%a%b%c%d%d%e%f%g%h%i%j%k%                                  ",
"    l%m%n%o%P p%q%r%s%& & & & t%u%v%w%x%y%z%A%            B%C%D%                                ",
"  E%F%=$< y [ ) G%H%t%[ [ [ f I%J%K%L%M%N%O%P%          Q%=$p%R%S%                              ",
"  T%y [ [ < U%y 6.r$[ [ [ [ V%W%X%Y%[ h ;.Z%`%       &.&p%[ [ F%+&                              ",
"  @&f [ ;.#&$&%&&&t%[ [ [ h$*&=&-&;&h [ f p%>&,&  '&)&U%[ [ p%!&                                ",
"~&{&[ ) ]&^&  /&(&y [ [ e._&:&<&[&}&|&1&[ [ & 2&3&(&< [ y U%4&5&                                ",
"  q%[ < 6&    7&P [ [ [ 8&9&l.l.0&a&b&c&/@f [ y < f [ ) d&e&                                    ",
"f&p%[ < 6&  g&r$) [ [ [ h&i&l.l.l.l.j&k&l&C$y [ [ [ ) ;%m&                                      ",
"n&=$[ < 6&  o&p&) [ [ [ [ q&r&l.l.l.l.l.s&t&u&) [ < v&w&                                        ",
"x&y&[ < z&  A&B&P [ [ [ [ [ C&D&l.l.l.E&F&  G&H&I&J&                                            "};
